inDegrees=no
num_controls=7
num_derivatives=13
num_iterations=77
num_multipliers=7
num_parameters=0
num_slacks=7
num_states=26
objective=0.455787
objective_accelerations=0.047409
objective_balance=0.000879
objective_effort=0.038582
objective_height=0.362195
objective_ligament=0.006723
solver_duration=972.808784
status=Solve_Succeeded
success=true
DataType=double
version=3
OpenSimVersion=4.5
endheader
time	/jointset/ground_pelvis/pelvis_tilt/value	/jointset/ground_pelvis/pelvis_tx/value	/jointset/ground_pelvis/pelvis_ty/value	/jointset/hip_r/hip_flexion_r/value	/jointset/hip_r/hip_adduction_r/value	/jointset/hip_r/hip_rotation_r/value	/jointset/back/lumbar_extension/value	/jointset/patellofemoral_r/patellar_flexion_r/value	/jointset/knee_r/knee_flexion_r/value	/jointset/knee_r/knee_adduction_r/value	/jointset/knee_r/knee_rotation_r/value	/jointset/ankle_r/ankle_angle_r/value	/jointset/subtalar_r/subtalar_angle_r/value	/jointset/ground_pelvis/pelvis_tilt/speed	/jointset/ground_pelvis/pelvis_tx/speed	/jointset/ground_pelvis/pelvis_ty/speed	/jointset/hip_r/hip_flexion_r/speed	/jointset/hip_r/hip_adduction_r/speed	/jointset/hip_r/hip_rotation_r/speed	/jointset/back/lumbar_extension/speed	/jointset/patellofemoral_r/patellar_flexion_r/speed	/jointset/knee_r/knee_flexion_r/speed	/jointset/knee_r/knee_adduction_r/speed	/jointset/knee_r/knee_rotation_r/speed	/jointset/ankle_r/ankle_angle_r/speed	/jointset/subtalar_r/subtalar_angle_r/speed	/forceset/tau_hip_flexion_r	/forceset/tau_hip_adduction_r	/forceset/tau_hip_rotation_r	/forceset/tau_knee_flexion_r	/forceset/tau_ankle_angle_r	/forceset/tau_subtalar_angle_r	/forceset/tau_lumbar_extension	lambda_cid13_p0	lambda_cid14_p0	lambda_cid14_p1	lambda_cid14_p2	lambda_cid14_p3	lambda_cid14_p4	lambda_cid14_p5	/jointset/ground_pelvis/pelvis_tilt/accel	/jointset/ground_pelvis/pelvis_tx/accel	/jointset/ground_pelvis/pelvis_ty/accel	/jointset/hip_r/hip_flexion_r/accel	/jointset/hip_r/hip_adduction_r/accel	/jointset/hip_r/hip_rotation_r/accel	/jointset/back/lumbar_extension/accel	/jointset/patellofemoral_r/patellar_flexion_r/accel	/jointset/knee_r/knee_flexion_r/accel	/jointset/knee_r/knee_adduction_r/accel	/jointset/knee_r/knee_rotation_r/accel	/jointset/ankle_r/ankle_angle_r/accel	/jointset/subtalar_r/subtalar_angle_r/accel	gamma_cid13_p0	gamma_cid14_p0	gamma_cid14_p1	gamma_cid14_p2	gamma_cid14_p3	gamma_cid14_p4	gamma_cid14_p5
1.5	-0.07603637062252259	0.03515426039475494	0.8163087919719982	0.8012607807690251	-0.2532293680477701	-0.05040631970124768	-0.6253949174759047	0.952068244148692	0.9520682441486953	0.06600456625005462	0.1737892874311814	0.302342906227022	0.09328818089864455	0.4445590142236446	0.2169509566733249	0.5033075299191353	-1.986920785875582	0.03586941486658966	-0.5320967434595109	0.7985228389306918	-1.982857326092499	-1.982857326092476	0.09117734899753663	0.004484378326712225	-0.5223642971266443	-0.114676214317089	-0.1529011327980105	-0.004406398098259568	0.03703056375303357	-0.3180439733308287	0.01956025047038736	-0.01615762618385437	0.2087173015447795	-8.099116357284204	-36.58805568733519	-12.57772052883415	1.461013454208975	-3.324497488465031	-631.9583845297901	61.23061057660264	0.07790682271150169	0.5448876593653122	-0.4788006406542288	-0.9378365922954615	0.2428083314359785	-0.1723994682317357	1.727670573601083	-1.439224748953602	-1.439224748953602	0.4596865482982257	0.006260422508923842	-0.6203962112087857	0.2436575357002969	8.924350642959094e-08	-9.938562720675853e-09	-1.801932796870931e-06	7.646966484893603e-08	1.869211542789688e-07	2.00956006211477e-07	-1.194118872827848e-06
1.51	-0.07158710577875976	0.03735079149807148	0.8213169174777992	0.7813466469141342	-0.2528591913707174	-0.05573638892545886	-0.6173248698729492	0.9321701885378152	0.9321701885378109	0.06693998192768512	0.1738361164429842	0.2970888058775638	0.09215270848809085	0.44523271039411	0.222329049220632	0.4982103164355171	-1.995640116869318	0.03815437883859347	-0.5338441223341518	0.8153721795290314	-1.996470602896682	-1.99647060289665	0.09594741497386756	0.004874581320152576	-0.5283718115150551	-0.1124162404850643	-0.1458654308930248	-0.006089561331227391	0.03626017727400777	-0.3139050810228725	0.02127234197560666	-0.01642361246918731	0.2021913237473697	-9.128623562263348	-35.74379579503409	-12.39712929272212	1.262844948329849	-3.460404824029073	-627.1841704968455	61.15635835653448	0.05291172703642862	0.5303690865607541	-0.5412284038153613	-0.7991026763343534	0.2195279641757923	-0.1648062575550308	1.646390483178954	-1.279919014441219	-1.279919014439849	0.4916895637043036	0.05436654625498305	-0.5782894096715172	0.2172420686557221	9.253528632244889e-08	-3.421161169126999e-10	-1.669383044417795e-06	1.506740934338723e-07	1.666761355234543e-07	2.053384721230837e-07	-1.096397017523559e-06
1.52	-0.06713294183072972	0.0396003233336905	0.8262708615084442	0.7613532954846202	-0.2524665275471257	-0.06108171177051154	-0.6090897639279649	0.9121444921852369	0.9121444921852279	0.06792430285335453	0.173886640746423	0.2917771583128185	0.09103985076819786	0.4455388350774732	0.2275511031338219	0.4924712348878881	-2.002764300799922	0.040366844174326	-0.5351474676277831	0.8315345073365144	-2.008385474432491	-2.00838547443245	0.1009583986063502	0.005223436653327861	-0.5338737401840372	-0.1101532761849525	-0.1388297289880427	-0.007772724564194918	0.03548979079500572	-0.3097661887149172	0.02298443348082581	-0.01668959875452027	0.195665345949957	-10.19091904344782	-34.89936991516633	-12.21289600882938	1.059968617579134	-3.608213513111052	-622.4004462015881	61.12149320383114	0.004392525290946826	0.5136799325419322	-0.6071742534563455	-0.6188071796691287	0.2283086041817158	-0.08359275202986644	1.590268015429688	-1.099543695278875	-1.099543695278875	0.5078700795285691	-0.002009109544082642	-0.5192790673229591	0.2442556293177473	9.646511763071562e-08	1.187312500417773e-08	-1.520058783659535e-06	2.370944125367153e-07	1.440033206394436e-07	2.094897885484384e-07	-9.946717595233282e-07
1.53	-0.06267763607262759	0.04190124487817016	0.8311642560088091	0.7412968058340544	-0.2520520852138259	-0.06643736538524994	-0.6006964824207267	0.8920082579555152	0.8920082579555059	0.06896019967813768	0.1739399914534173	0.286413093653794	0.08994968601094917	0.4454583991852505	0.2326017026874004	0.486106915198842	-2.008261269734686	0.04250708909017765	-0.5359098509918286	0.8469976200240996	-2.018568271377256	-2.018568271377212	0.1062573305604807	0.005434272573053232	-0.538849193855374	-0.10788048605685	-0.1317905127319516	-0.009513355515939617	0.03469212312810432	-0.3058231762729645	0.02476680095298918	-0.01702873186549909	0.1891419916826909	-11.25549035951647	-34.0559112201198	-12.06751876471199	0.8711906353922113	-3.73410264523266	-617.8788854422403	61.06043298340319	-0.02384824702153069	0.4960455521446392	-0.6661302272646173	-0.4742848419190162	0.2046665391466388	-0.06139870269846755	1.505706782305718	-0.9337033818174899	-0.9337033818171119	0.5461854517952114	0.03080913687479217	-0.4731430655752574	0.2185164673904039	1.010728785678541e-07	2.687083529992836e-08	-1.352911607827081e-06	3.364941153148339e-07	1.187509723689058e-07	2.133955086446507e-07	-8.886928861586598e-07
